<svg width="140" height="112" viewBox="0 0 140 112" fill="none" xmlns="http://www.w3.org/2000/svg">
<path d="M126 49H98L84 63V14C84 6.3 90.3 0 98 0H126C133.7 0 140 6.3 140 14V35C140 42.7 133.7 49 126 49Z" fill="#2196F3"/>
<path d="M45.5 66.5C60.964 66.5 73.5 53.964 73.5 38.5C73.5 23.036 60.964 10.5 45.5 10.5C30.036 10.5 17.5 23.036 17.5 38.5C17.5 53.964 30.036 66.5 45.5 66.5Z" fill="#FFA726"/>
<path d="M91 100.45C91 100.45 78.4 77 45.5 77C12.6 77 0 100.45 0 100.45V112H91V100.45Z" fill="#607D8B"/>
</svg>
